<svg width="20" height="15" viewBox="0 0 20 15" fill="none" xmlns="http://www.w3.org/2000/svg">
<path d="M18.3333 0H1.66667C0.75 0 0 0.75 0 1.66667V13.3333C0 14.25 0.75 15 1.66667 15H18.3333C19.25 15 19.9917 14.25 19.9917 13.3333L20 1.66667C20 0.75 19.25 0 18.3333 0ZM6.66667 2.5C8.05 2.5 9.16667 3.61667 9.16667 5C9.16667 6.38333 8.05 7.5 6.66667 7.5C5.28333 7.5 4.16667 6.38333 4.16667 5C4.16667 3.61667 5.28333 2.5 6.66667 2.5ZM11.6667 12.5H1.66667V11.6667C1.66667 10 5 9.08333 6.66667 9.08333C8.33333 9.08333 11.6667 10 11.6667 11.6667V12.5ZM14.875 9.16667H16.0333C16.1667 9.16667 16.2833 9.225 16.3667 9.33333L17.2833 10.5417C17.4083 10.7083 17.3917 10.9417 17.2417 11.0833L16.1083 12.2167C15.9583 12.3667 15.7083 12.3833 15.55 12.25C14.5965 11.4393 13.906 10.363 13.5667 9.15833C13.2557 8.07181 13.2557 6.91985 13.5667 5.83333C13.9032 4.62739 14.5941 3.55031 15.55 2.74167C15.7167 2.6 15.9583 2.625 16.1083 2.775L17.2417 3.90833C17.3917 4.05833 17.4083 4.29167 17.2833 4.45L16.3667 5.65833C16.3288 5.71108 16.2787 5.75382 16.2206 5.78286C16.1625 5.8119 16.0982 5.82636 16.0333 5.825H14.875C14.6917 6.35 14.5833 6.90833 14.5833 7.49167C14.5833 8.075 14.6917 8.64167 14.875 9.16667Z" fill="black"/>
</svg>
