<svg width="25" height="20" viewBox="0 0 25 20" fill="none" xmlns="http://www.w3.org/2000/svg">
<path d="M2.41667 19.3333C1.75208 19.3333 1.18336 19.0969 0.7105 18.624C0.237639 18.1512 0.000805556 17.5821 0 16.9167V2.41667C0 1.75208 0.236833 1.18336 0.7105 0.7105C1.18417 0.237639 1.75289 0.000805555 2.41667 0H21.75C22.4146 0 22.9837 0.236833 23.4574 0.7105C23.931 1.18417 24.1675 1.75289 24.1667 2.41667V16.9167C24.1667 17.5812 23.9302 18.1504 23.4574 18.624C22.9845 19.0977 22.4154 19.3341 21.75 19.3333H2.41667ZM12.0833 10.6635C12.184 10.6635 12.29 10.6482 12.4011 10.6176C12.5123 10.587 12.6178 10.5419 12.7177 10.4823L21.2667 5.13542C21.4278 5.03472 21.5486 4.90906 21.6292 4.75842C21.7097 4.60778 21.75 4.44143 21.75 4.25937C21.75 3.8566 21.5788 3.55451 21.2365 3.35312C20.8941 3.15174 20.5417 3.16181 20.1792 3.38333L12.0833 8.45833L3.9875 3.38333C3.625 3.16181 3.27257 3.15697 2.93021 3.36883C2.58785 3.58069 2.41667 3.87754 2.41667 4.25937C2.41667 4.46076 2.45694 4.63718 2.5375 4.78862C2.61806 4.94007 2.73889 5.05567 2.9 5.13542L11.449 10.4823C11.5497 10.5427 11.6556 10.5882 11.7668 10.6188C11.8779 10.6494 11.9834 10.6643 12.0833 10.6635Z" fill="#164A3A"/>
</svg>
