<svg width="17" height="17" viewBox="0 0 17 17" fill="none" xmlns="http://www.w3.org/2000/svg">
<path d="M16.5556 14.6417L16.3667 14.475C15.8309 13.9974 15.3619 13.4499 14.9722 12.8472C14.5464 12.0155 14.2914 11.1069 14.2222 10.175V7.43056C14.2259 5.96701 13.695 4.55249 12.7293 3.45276C11.7636 2.35304 10.4295 1.64381 8.97778 1.45833V0.741667C8.97778 0.544964 8.89964 0.356319 8.76055 0.217229C8.62146 0.0781397 8.43281 0 8.23611 0C8.03941 0 7.85076 0.0781397 7.71167 0.217229C7.57258 0.356319 7.49445 0.544964 7.49445 0.741667V1.46944C6.0557 1.66829 4.73776 2.38181 3.78474 3.47784C2.83171 4.57387 2.30818 5.97814 2.31111 7.43056V10.175C2.24197 11.1069 1.98696 12.0155 1.56111 12.8472C1.17827 13.4485 0.716775 13.996 0.188889 14.475L0 14.6417V16.2083H16.5556V14.6417Z" fill="#2B322B"/>
</svg>
