<svg width="20" height="20" viewBox="0 0 20 20" fill="none" xmlns="http://www.w3.org/2000/svg">
<path fill-rule="evenodd" clip-rule="evenodd" d="M10.8786 0.377375C10.7622 0.257935 10.623 0.163013 10.4693 0.098201C10.3156 0.0333895 10.1504 0 9.98362 0C9.81681 0 9.65168 0.0333895 9.49797 0.098201C9.34426 0.163013 9.20508 0.257935 9.08862 0.377375L8.29112 1.19612C8.13416 1.3574 7.93656 1.47331 7.71919 1.53161C7.50181 1.58992 7.27273 1.58845 7.05612 1.52737L5.95612 1.21737C5.79557 1.17219 5.62759 1.1596 5.46208 1.18034C5.29658 1.20108 5.13691 1.25473 4.99246 1.33814C4.84802 1.42155 4.72172 1.53302 4.62103 1.66598C4.52033 1.79895 4.44726 1.95073 4.40612 2.11237L4.12362 3.21987C4.06824 3.43789 3.95505 3.63693 3.79599 3.79599C3.63693 3.95505 3.43789 4.06824 3.21987 4.12362L2.11237 4.40487C1.95073 4.44601 1.79895 4.51908 1.66598 4.61978C1.53302 4.72047 1.42155 4.84677 1.33814 4.99121C1.25473 5.13566 1.20108 5.29533 1.18034 5.46083C1.1596 5.62634 1.17219 5.79431 1.21737 5.95487L1.52737 7.05612C1.58845 7.27273 1.58992 7.50181 1.53161 7.71919C1.47331 7.93656 1.3574 8.13416 1.19612 8.29112L0.377375 9.08862C0.257935 9.20508 0.163013 9.34426 0.098201 9.49797C0.0333895 9.65168 0 9.81681 0 9.98362C0 10.1504 0.0333895 10.3156 0.098201 10.4693C0.163013 10.623 0.257935 10.7622 0.377375 10.8786L1.19612 11.6774C1.35718 11.8342 1.47296 12.0316 1.53125 12.2487C1.58955 12.4659 1.58821 12.6947 1.52737 12.9111L1.21737 14.0111C1.17219 14.1717 1.1596 14.3397 1.18034 14.5052C1.20108 14.6707 1.25473 14.8303 1.33814 14.9748C1.42155 15.1192 1.53302 15.2455 1.66598 15.3462C1.79895 15.4469 1.95073 15.52 2.11237 15.5611L3.21987 15.8436C3.43789 15.899 3.63693 16.0122 3.79599 16.1713C3.95505 16.3303 4.06824 16.5294 4.12362 16.7474L4.40487 17.8549C4.44587 18.0166 4.51884 18.1685 4.61948 18.3017C4.72012 18.4348 4.84639 18.5464 4.99085 18.6299C5.13531 18.7134 5.29504 18.7672 5.4606 18.788C5.62617 18.8088 5.79423 18.7963 5.95487 18.7511L7.05612 18.4411C7.27262 18.3799 7.50164 18.3782 7.719 18.4363C7.93636 18.4944 8.13402 18.6101 8.29112 18.7711L9.08862 19.5899C9.20508 19.7093 9.34426 19.8042 9.49797 19.869C9.65168 19.9339 9.81681 19.9672 9.98362 19.9672C10.1504 19.9672 10.3156 19.9339 10.4693 19.869C10.623 19.8042 10.7622 19.7093 10.8786 19.5899L11.6774 18.7711C11.8344 18.6103 12.0318 18.4947 12.2489 18.4367C12.466 18.3786 12.6948 18.3801 12.9111 18.4411L14.0111 18.7511C14.1718 18.7963 14.3398 18.8088 14.5054 18.788C14.671 18.7672 14.8307 18.7134 14.9751 18.6299C15.1196 18.5464 15.2459 18.4348 15.3465 18.3017C15.4472 18.1685 15.5201 18.0166 15.5611 17.8549L15.8436 16.7474C15.899 16.5294 16.0122 16.3303 16.1713 16.1713C16.3303 16.0122 16.5294 15.899 16.7474 15.8436L17.8549 15.5624C18.0166 15.5214 18.1685 15.4484 18.3017 15.3478C18.4348 15.2471 18.5464 15.1209 18.6299 14.9764C18.7134 14.8319 18.7672 14.6722 18.788 14.5066C18.8088 14.3411 18.7963 14.173 18.7511 14.0124L18.4411 12.9124C18.3799 12.6959 18.3782 12.4669 18.4363 12.2495C18.4944 12.0321 18.6101 11.8345 18.7711 11.6774L19.5899 10.8786C19.7093 10.7622 19.8042 10.623 19.869 10.4693C19.9339 10.3156 19.9672 10.1504 19.9672 9.98362C19.9672 9.81681 19.9339 9.65168 19.869 9.49797C19.8042 9.34426 19.7093 9.20508 19.5899 9.08862L18.7711 8.29112C18.6101 8.13402 18.4944 7.93636 18.4363 7.719C18.3782 7.50164 18.3799 7.27262 18.4411 7.05612L18.7511 5.95612C18.7963 5.79548 18.8088 5.62742 18.788 5.46185C18.7672 5.29629 18.7134 5.13656 18.6299 4.9921C18.5464 4.84764 18.4348 4.72137 18.3017 4.62073C18.1685 4.52009 18.0166 4.44712 17.8549 4.40612L16.7474 4.12362C16.5294 4.06824 16.3303 3.95505 16.1713 3.79599C16.0122 3.63693 15.899 3.43789 15.8436 3.21987L15.5624 2.11237C15.5212 1.95073 15.4482 1.79895 15.3475 1.66598C15.2468 1.53302 15.1205 1.42155 14.976 1.33814C14.8316 1.25473 14.6719 1.20108 14.5064 1.18034C14.3409 1.1596 14.1729 1.17219 14.0124 1.21737L12.9124 1.52737C12.6956 1.58869 12.4663 1.59028 12.2486 1.53197C12.031 1.47366 11.8332 1.35762 11.6761 1.19612L10.8786 0.377375ZM14.6999 7.84612C14.8789 7.6734 14.982 7.43664 14.9864 7.18792C14.9909 6.9392 14.8963 6.6989 14.7236 6.51988C14.5509 6.34085 14.3141 6.23778 14.0654 6.23332C13.8167 6.22887 13.5764 6.3234 13.3974 6.49612L8.22987 11.4861L6.58362 9.84237C6.40742 9.66667 6.16864 9.56816 5.9198 9.56851C5.67096 9.56886 5.43246 9.66805 5.25675 9.84425C5.08104 10.0205 4.98253 10.2592 4.98288 10.5081C4.98323 10.7569 5.08242 10.9954 5.25862 11.1711L7.55737 13.4636C7.73098 13.6371 7.96568 13.7355 8.21107 13.7379C8.45647 13.7402 8.693 13.6462 8.86987 13.4761L14.6999 7.84612Z" fill="black"/>
</svg>
