<svg width="24" height="24" viewBox="0 0 24 24" fill="none" xmlns="http://www.w3.org/2000/svg">
<path d="M23.9438 18.1146C23.6642 17.8168 22.6768 16.936 20.8618 15.7708C19.0333 14.5955 17.6849 13.8626 17.2981 13.6917C17.264 13.6766 17.2264 13.671 17.1894 13.6757C17.1524 13.6803 17.1174 13.6949 17.0881 13.7179C16.465 14.2039 15.4161 15.0964 15.3598 15.1446C14.9966 15.4558 14.9966 15.4558 14.6993 15.3589C14.1764 15.1874 12.5521 14.3249 11.1367 12.9063C9.72129 11.4877 8.8143 9.82323 8.64287 9.3009C8.54483 9.00304 8.54483 9.00304 8.85716 8.63982C8.90537 8.58357 9.79843 7.53462 10.2843 6.91211C10.3074 6.88279 10.322 6.84775 10.3266 6.81075C10.3313 6.77375 10.3257 6.73619 10.3106 6.7021C10.1397 6.31477 9.40682 4.96689 8.23143 3.13846C7.06461 1.32396 6.18494 0.336625 5.88708 0.0569767C5.85975 0.0311832 5.82596 0.0132398 5.78929 0.00503713C5.75261 -0.00316549 5.7144 -0.00132353 5.67868 0.0103687C4.63749 0.368186 3.63289 0.824737 2.6786 1.37379C1.75738 1.90931 0.885218 2.52511 0.072283 3.214C0.0439054 3.23813 0.02263 3.26952 0.0107383 3.30482C-0.00115334 3.34011 -0.00321258 3.37798 0.0047813 3.41436C0.116749 3.93616 0.651941 6.11441 2.3127 9.13161C4.00721 12.211 5.18153 13.7887 7.66998 16.2685C10.1584 18.7484 11.786 19.9934 14.8686 21.6879C17.8858 23.3487 20.0651 23.8844 20.5859 23.9953C20.6223 24.0032 20.6602 24.0011 20.6956 23.9892C20.731 23.9773 20.7625 23.9561 20.7868 23.9278C21.4755 23.1149 22.0912 22.2427 22.6265 21.3215C23.1754 20.3672 23.632 19.3626 23.9899 18.3214C24.0013 18.286 24.0031 18.2481 23.995 18.2118C23.9869 18.1754 23.9692 18.1419 23.9438 18.1146Z" fill="#164A3A"/>
</svg>
