<svg width="32" height="32" viewBox="0 0 32 32" fill="none" xmlns="http://www.w3.org/2000/svg">
<path d="M16.0002 6.33333C16.9202 6.33333 17.6668 7.07999 17.6668 7.99999V14.3333H24.0002C24.4422 14.3333 24.8661 14.5089 25.1787 14.8215C25.4912 15.134 25.6668 15.558 25.6668 16C25.6668 16.442 25.4912 16.8659 25.1787 17.1785C24.8661 17.4911 24.4422 17.6667 24.0002 17.6667H17.6668V24C17.6668 24.442 17.4912 24.8659 17.1787 25.1785C16.8661 25.4911 16.4422 25.6667 16.0002 25.6667C15.5581 25.6667 15.1342 25.4911 14.8217 25.1785C14.5091 24.8659 14.3335 24.442 14.3335 24V17.6667H8.00016C7.55814 17.6667 7.13421 17.4911 6.82165 17.1785C6.50909 16.8659 6.3335 16.442 6.3335 16C6.3335 15.558 6.50909 15.134 6.82165 14.8215C7.13421 14.5089 7.55814 14.3333 8.00016 14.3333H14.3335V7.99999C14.3335 7.07999 15.0802 6.33333 16.0002 6.33333Z" fill="#164A3A"/>
</svg>
