<svg width="20" height="20" viewBox="0 0 20 20" fill="none" xmlns="http://www.w3.org/2000/svg">
<path d="M14.75 3L14.125 4.25C15.5 6 16.25 8.25 16.25 10.625C16.25 12.75 15.625 14.625 14.625 16.375L15.5 17.375C16.875 15.5 17.625 13.125 17.625 10.625C17.5 7.75 16.5 5.125 14.75 3Z" fill="black"/>
<path d="M13.5 5.5L12.875 6.875C13.5 8 13.875 9.25 13.875 10.625C13.875 11.875 13.5 13.125 13 14.25L13.875 15.375C14.625 14 15.125 12.375 15.125 10.75C15 8.75 14.5 7 13.5 5.5ZM5 6.25H0V13.75H5L11.25 18.75V1.25L5 6.25Z" fill="black"/>
</svg>
