<svg width="28" height="28" viewBox="0 0 28 28" fill="none" xmlns="http://www.w3.org/2000/svg">
<path d="M14.0055 16.0923C15.1653 16.0923 16.1054 15.1526 16.1054 13.9933C16.1054 12.8341 15.1653 11.8943 14.0055 11.8943C12.8457 11.8943 11.9056 12.8341 11.9056 13.9933C11.9056 15.1526 12.8457 16.0923 14.0055 16.0923Z" fill="#2B322B"/>
<path d="M27.8511 11.6425L26.7452 8.11613C26.6258 7.70858 26.4254 7.32925 26.1562 7.00075C25.8869 6.67226 25.5542 6.40134 25.178 6.20414C24.8017 6.00694 24.3895 5.88752 23.9661 5.85299C23.5426 5.81845 23.1166 5.86952 22.7133 6.00314L22.2373 6.15707C21.8644 6.28027 21.4672 6.31153 21.0796 6.24818C20.6921 6.18483 20.3255 6.02875 20.0113 5.79324L19.8573 5.68129C19.5507 5.44673 19.3036 5.14342 19.1358 4.79584C18.968 4.44825 18.8843 4.06611 18.8914 3.68025V3.28843C18.8982 2.40969 18.5558 1.56416 17.9394 0.937553C17.6462 0.641528 17.2974 0.406313 16.913 0.245419C16.5286 0.0845257 16.1162 0.00112253 15.6995 0H12.1295C11.273 0.0110635 10.4555 0.359898 9.85509 0.970554C9.25465 1.58121 8.91986 2.40424 8.92363 3.26045V3.59629C8.92228 4.00247 8.82976 4.40318 8.65289 4.76888C8.47602 5.13457 8.2193 5.45594 7.90165 5.70928L7.71966 5.84921C7.36875 6.11456 6.95831 6.29022 6.52403 6.36095C6.08974 6.43167 5.64475 6.39531 5.22772 6.25502C4.84472 6.12254 4.4388 6.06911 4.03453 6.09798C3.63027 6.12684 3.23607 6.23739 2.87578 6.42294C2.50067 6.60903 2.16788 6.8703 1.89814 7.19048C1.62839 7.51066 1.42745 7.88291 1.30783 8.28405L0.159855 11.9223C-0.106359 12.7426 -0.0380879 13.6347 0.349843 14.405C0.737774 15.1753 1.41404 15.7615 2.2318 16.0364H2.4558C2.83303 16.1777 3.17161 16.4059 3.44404 16.7025C3.71648 16.9991 3.91509 17.3558 4.02376 17.7435L4.10775 17.9674C4.26382 18.3958 4.316 18.8551 4.26003 19.3075C4.20406 19.76 4.04152 20.1927 3.78576 20.5702C3.26808 21.2749 3.04972 22.1554 3.17818 23.0202C3.30665 23.885 3.77155 24.6641 4.47174 25.188L7.36967 27.385C7.91839 27.7837 8.58125 27.9948 9.25962 27.9867C9.44118 28.0044 9.62404 28.0044 9.80561 27.9867C10.2257 27.9054 10.6249 27.7394 10.9787 27.4988C11.3325 27.2582 11.6336 26.9481 11.8636 26.5873L12.1855 26.1256C12.4114 25.8017 12.7103 25.5355 13.058 25.3483C13.4058 25.1611 13.7927 25.0583 14.1875 25.0481C14.6013 25.0379 15.0109 25.1326 15.3781 25.3235C15.7453 25.5144 16.0581 25.7951 16.2874 26.1395L16.4554 26.3774C16.6941 26.7325 17.003 27.035 17.3631 27.2662C17.7231 27.4975 18.1267 27.6526 18.549 27.7221C18.9713 27.7916 19.4034 27.7739 19.8186 27.6702C20.2338 27.5665 20.6234 27.3789 20.9633 27.1191L23.8052 24.9921C24.4772 24.4705 24.924 23.7117 25.0542 22.8713C25.1843 22.0309 24.9879 21.1725 24.5052 20.4722L24.1412 19.9405C23.9223 19.6025 23.779 19.2212 23.721 18.8227C23.6631 18.4242 23.6918 18.018 23.8052 17.6316C23.9209 17.218 24.1356 16.8388 24.4307 16.5267C24.7258 16.2146 25.0926 15.9791 25.4992 15.8405L25.7792 15.7425C26.5894 15.4615 27.2585 14.8766 27.6451 14.1115C28.0318 13.3464 28.1056 12.461 27.8511 11.6425ZM14.0055 18.891C13.0364 18.891 12.0891 18.6038 11.2833 18.0656C10.4775 17.5274 9.84946 16.7625 9.4786 15.8676C9.10774 14.9727 9.01071 13.9879 9.19977 13.0378C9.38883 12.0878 9.8555 11.2151 10.5408 10.5302C11.226 9.84521 12.0991 9.37875 13.0496 9.18977C14.0001 9.0008 14.9853 9.09779 15.8806 9.46848C16.7759 9.83917 17.5412 10.4669 18.0796 11.2723C18.618 12.0778 18.9054 13.0247 18.9054 13.9933C18.9054 15.2923 18.3891 16.538 17.4702 17.4565C16.5513 18.375 15.305 18.891 14.0055 18.891Z" fill="#2B322B"/>
</svg>
